<svg width="60" height="60" viewBox="0 0 60 60" fill="none" xmlns="http://www.w3.org/2000/svg">
<path d="M5.06055 32.7482V13.3969L13.4058 9.28477L33.1804 18.9604L24.6537 23.133L13.4058 17.63V28.757L5.06055 32.7482Z" fill="#F9D917"/>
<path d="M27.496 10.6756L19.0902 6.50302L30.2777 1L41.5256 6.50302L33.1804 10.6756L30.2777 9.28477L27.496 10.6756Z" fill="#F9D917"/>
<path d="M55.4946 27.2518L55.4946 46.6031L47.1494 50.7152L27.3748 41.0396L35.9014 36.867L47.1494 42.37L47.1494 31.243L55.4946 27.2518Z" fill="#F9D917"/>
<path d="M33.0592 49.3244L41.4649 53.497L30.2775 59L19.0295 53.497L27.3748 49.3244L30.2775 50.7152L33.0592 49.3244Z" fill="#F9D917"/>
<path d="M13.4057 50.7734L21.8719 46.6008L13.4662 42.4282L55.6157 21.7465V13.4617L47.2705 9.28906L38.8043 13.4617L47.0891 17.6343L5 38.316V46.6008L13.4057 50.7734Z" fill="#F9D917"/>
</svg>
